<svg xmlns="http://www.w3.org/2000/svg" viewBox="0 0 1200 630" width="1200" height="630" role="img" aria-label="ARCHON-IX | Strategic Sovereignty &amp; Legacy Architecture">
  <defs>
    <radialGradient id="bg" cx="50%" cy="0%" r="80%">
      <stop offset="0%" stop-color="#13224a"/>
      <stop offset="100%" stop-color="#0A1128"/>
    </radialGradient>
    <linearGradient id="goldText" x1="0" y1="0" x2="0" y2="1">
      <stop offset="0%" stop-color="#F5F5F5"/>
      <stop offset="100%" stop-color="#e6c878"/>
    </linearGradient>
  </defs>
  <rect width="1200" height="630" fill="url(#bg)"/>
  <g stroke="#C9A961" stroke-opacity="0.05" stroke-width="1">
    <line x1="0" y1="105" x2="1200" y2="105"/>
    <line x1="0" y1="525" x2="1200" y2="525"/>
    <line x1="300" y1="0" x2="300" y2="630"/>
    <line x1="900" y1="0" x2="900" y2="630"/>
  </g>
  <g stroke="#C9A961" stroke-width="2" fill="none">
    <polyline points="40,80 40,40 80,40"/>
    <polyline points="1160,80 1160,40 1120,40"/>
    <polyline points="40,550 40,590 80,590"/>
    <polyline points="1160,550 1160,590 1120,590"/>
  </g>
  <g transform="translate(110,140)">
    <rect width="160" height="160" fill="#06091b" stroke="#C9A961" stroke-width="2"/>
    <g fill="#C9A961">
      <polygon points="80,28 86,72 80,80 74,72"/>
      <polygon points="132,80 86,86 80,80 86,74"/>
      <polygon points="80,132 74,86 80,80 86,86"/>
      <polygon points="28,80 74,74 80,80 74,86"/>
      <circle cx="80" cy="80" r="6"/>
    </g>
    <line x1="20" y1="20" x2="140" y2="140" stroke="#C9A961" stroke-width="0.7" stroke-opacity="0.4"/>
    <line x1="140" y1="20" x2="20" y2="140" stroke="#C9A961" stroke-width="0.7" stroke-opacity="0.4"/>
  </g>
  <text x="320" y="190" fill="#C9A961" font-family="Helvetica, Arial, sans-serif" font-weight="700" font-size="44" letter-spacing="6">ARCHON-IX</text>
  <text x="320" y="320" fill="url(#goldText)" font-family="Helvetica, Arial, sans-serif" font-weight="700" font-size="68">Strategic Sovereignty</text>
  <text x="320" y="392" fill="#F5F5F5" font-family="Helvetica, Arial, sans-serif" font-weight="300" font-size="50">&amp; Legacy Architecture</text>
  <text x="320" y="468" fill="#aab1c2" font-family="Helvetica, Arial, sans-serif" font-weight="400" font-size="22" font-style="italic">"We do not accept entropy; we architect stability."</text>
  <line x1="320" y1="540" x2="1080" y2="540" stroke="#C9A961" stroke-width="1" stroke-opacity="0.4"/>
  <text x="320" y="575" fill="#C9A961" font-family="Helvetica, Arial, sans-serif" font-weight="600" font-size="18" letter-spacing="3">KODA KINETIX PRESS</text>
  <text x="1080" y="575" fill="#aab1c2" text-anchor="end" font-family="Helvetica, Arial, sans-serif" font-weight="400" font-size="18">archonstratagemai.com</text>
</svg>
